<?xml version="1.0" standalone="no"?>
<!DOCTYPE svg PUBLIC "-//W3C//DTD SVG 20010904//EN"
 "http://www.w3.org/TR/2001/REC-SVG-20010904/DTD/svg10.dtd">
<svg version="1.0" xmlns="http://www.w3.org/2000/svg"
 width="824.000000pt" height="824.000000pt" viewBox="0 0 824.000000 824.000000"
 preserveAspectRatio="xMidYMid meet">
<metadata>
Created by potrace 1.14, written by Peter Selinger 2001-2017
</metadata>
<g transform="translate(0.000000,824.000000) scale(0.100000,-0.100000)"
fill="#000000" stroke="none">
<path d="M6329 8106 c-2 -2 -31 -7 -64 -11 -141 -15 -316 -72 -475 -152 -68
-35 -127 -67 -130 -71 -3 -4 -25 -21 -50 -37 -25 -17 -50 -34 -56 -40 -6 -5
-28 -23 -49 -40 -56 -44 -170 -162 -218 -225 -23 -30 -48 -61 -55 -68 -21 -23
-122 -198 -153 -268 -54 -118 -115 -323 -124 -414 -2 -14 -4 -27 -5 -30 -1 -3
-2 -8 -2 -11 2 -15 -28 -196 -38 -231 -6 -22 -17 -38 -26 -38 -13 0 -163 59
-279 110 -38 16 -74 31 -85 35 -3 1 -12 5 -20 8 -35 15 -136 51 -147 53 -7 1
-34 9 -60 17 -112 34 -130 39 -156 40 -15 1 -27 4 -27 7 0 3 -8 6 -17 7 -10 1
-56 8 -103 17 -188 34 -262 40 -495 40 -188 0 -300 -5 -375 -19 -14 -3 -41 -7
-60 -10 -19 -3 -42 -8 -50 -10 -8 -2 -28 -7 -45 -9 -16 -3 -75 -15 -129 -26
-55 -11 -101 -18 -104 -15 -2 2 -6 37 -8 77 -2 40 -5 84 -8 98 -10 59 -17 91
-26 114 -5 15 -7 26 -5 26 6 0 -76 160 -90 177 -5 7 -30 36 -55 66 -46 55
-156 137 -184 137 -8 0 -17 4 -20 9 -13 20 -171 30 -281 18 -196 -23 -318 -98
-411 -252 -18 -30 -31 -55 -27 -55 3 0 1 -6 -4 -12 -32 -40 -57 -170 -57 -288
1 -117 17 -192 64 -295 19 -42 81 -130 106 -150 7 -5 29 -25 51 -42 21 -18 46
-39 56 -46 17 -12 0 -32 -210 -243 -126 -126 -266 -274 -310 -330 -78 -98
-223 -299 -223 -310 0 -3 -13 -24 -28 -47 -16 -23 -32 -49 -35 -57 -4 -8 -17
-31 -28 -50 -91 -150 -237 -503 -284 -690 -11 -44 -35 -161 -40 -200 -3 -25
-8 -56 -10 -70 -5 -28 -12 -106 -22 -230 -10 -114 -9 -628 1 -710 4 -36 9 -83
11 -105 2 -22 5 -40 6 -40 1 0 3 -9 4 -20 2 -11 6 -38 9 -61 l6 -40 -77 -26
c-43 -15 -123 -43 -178 -63 -55 -20 -125 -45 -155 -55 -30 -10 -70 -25 -89
-33 l-34 -14 29 -15 c16 -8 39 -20 52 -26 187 -99 730 -365 847 -417 17 -7 52
-22 78 -34 88 -40 100 -39 124 11 34 67 143 299 143 303 0 2 22 51 50 110 28
59 50 108 50 111 0 2 16 38 35 80 19 41 35 77 35 79 0 3 14 35 31 72 43 95
119 280 119 292 0 11 -90 -13 -228 -62 -139 -49 -272 -81 -285 -68 -5 5 -11
22 -12 38 -2 15 -6 60 -10 98 -4 39 -9 90 -11 115 -5 68 -5 349 1 400 3 25 6
52 6 60 1 8 5 44 11 80 6 36 12 76 13 90 5 32 12 69 31 144 8 34 16 68 18 76
9 37 79 238 102 293 47 110 150 312 172 335 6 7 12 19 12 27 0 7 3 15 8 17 4
2 30 37 57 78 122 183 287 364 465 510 107 88 105 87 152 117 24 15 45 30 48
34 3 3 21 14 40 25 19 10 42 24 50 30 49 37 315 162 333 156 4 -1 7 3 7 10 0
6 3 8 6 5 4 -3 15 -2 26 4 11 6 27 12 36 14 9 2 40 11 67 21 28 9 57 19 65 22
8 3 18 5 22 4 3 -1 28 5 55 13 26 7 75 17 108 21 33 3 67 8 75 9 75 14 400 25
400 13 0 -4 11 -3 24 2 13 5 26 7 27 5 2 -1 38 -6 80 -9 163 -12 215 -19 230
-27 9 -4 19 -6 21 -3 6 5 158 -33 254 -64 213 -70 497 -223 657 -355 26 -21
47 -37 47 -34 0 12 242 -221 310 -298 19 -22 63 -76 97 -120 35 -44 67 -85 71
-90 5 -6 11 -15 13 -20 3 -9 40 -66 99 -155 108 -165 243 -531 280 -760 5 -36
12 -76 15 -90 39 -212 39 -677 -1 -870 -3 -14 -7 -38 -10 -55 -6 -39 -12 -70
-14 -70 -1 0 -3 -11 -5 -25 -8 -65 -87 -287 -151 -428 -13 -29 -24 -54 -24
-56 0 -18 -207 -367 -229 -386 -4 -3 -26 -32 -51 -65 -64 -87 -91 -116 -225
-250 -109 -109 -295 -261 -352 -288 -13 -6 -23 -14 -23 -19 0 -4 -5 -8 -11 -8
-6 0 -23 -8 -37 -19 -34 -24 -181 -99 -297 -152 -178 -81 -292 -111 -520 -134
-171 -18 -618 -29 -1655 -40 -797 -9 -1263 -17 -1697 -30 -67 -2 -127 -6 -132
-10 -6 -3 -11 -1 -11 5 0 6 -4 9 -9 5 -9 -5 -168 -17 -216 -16 -38 1 -109 -98
-123 -173 -14 -68 -6 -180 17 -232 19 -45 58 -81 96 -91 38 -10 115 -25 140
-28 327 -33 654 -36 3955 -38 l2864 -2 1 -282 c0 -155 3 -285 6 -288 3 -3 73
65 155 150 82 86 181 189 219 229 39 40 111 117 160 171 50 54 97 105 106 114
8 9 40 45 70 81 30 35 61 72 70 82 37 42 42 64 23 88 -62 73 -221 245 -452
489 -302 319 -334 352 -339 347 -4 -3 -11 -174 -18 -441 -2 -60 -4 -112 -5
-115 -1 -3 -2 -9 -1 -13 1 -5 -342 -7 -761 -4 -717 4 -994 10 -1006 21 -11 11
20 48 214 248 172 178 322 378 456 608 75 128 225 440 212 440 -3 0 2 12 10
28 15 25 58 135 62 157 1 6 12 39 24 75 12 36 24 76 26 90 3 14 10 43 16 65
11 45 14 57 23 111 3 22 8 53 11 69 3 17 7 55 9 85 2 30 5 55 5 55 7 0 14 205
14 390 0 211 -5 338 -19 470 -5 52 -6 58 -24 165 -22 137 -82 330 -152 495 -7
17 -13 32 -14 35 -7 20 -32 75 -75 165 -27 57 -50 108 -50 114 0 5 -3 11 -7
13 -5 2 -23 32 -42 68 -19 36 -43 77 -53 93 -11 15 -17 27 -15 27 6 0 -114
188 -134 211 -27 30 -139 197 -139 207 0 5 -9 20 -19 34 -20 24 -88 181 -94
215 -2 10 -9 36 -15 58 -20 71 -25 137 -26 325 0 278 14 364 77 505 17 39 35
72 39 73 5 2 8 8 8 14 0 30 205 268 231 268 4 0 14 6 21 13 73 68 268 150 418
173 100 16 259 6 365 -22 6 -2 20 -5 31 -8 51 -11 180 -72 242 -114 61 -41
167 -140 217 -202 105 -131 188 -335 213 -525 10 -73 8 -218 -3 -270 -3 -16
-8 -44 -10 -62 -2 -18 -9 -41 -15 -52 -5 -11 -9 -24 -9 -28 1 -4 -1 -17 -5
-28 -39 -105 -59 -126 -109 -118 -30 5 -60 18 -278 121 -171 81 -179 84 -179
64 0 -9 7 -39 16 -67 9 -27 17 -54 18 -60 6 -24 48 -161 53 -175 3 -8 7 -20 9
-27 3 -14 33 -111 41 -133 3 -8 7 -19 9 -25 22 -83 184 -574 205 -622 11 -24
25 -41 32 -38 6 2 55 17 107 34 52 16 160 53 240 81 80 28 152 53 160 55 50
13 569 215 574 224 7 11 -5 24 -54 56 -50 33 -55 36 -155 91 -38 21 -88 48
-110 60 -22 13 -59 32 -82 44 l-42 21 34 97 c44 124 85 267 90 312 2 19 7 51
10 70 14 77 17 132 17 305 0 195 -5 252 -27 315 -8 22 -12 40 -10 40 4 0 -48
158 -65 195 -5 11 -19 43 -31 70 -27 61 -121 227 -156 274 -111 151 -245 285
-386 387 -34 24 -68 49 -74 54 -7 6 -13 7 -13 3 0 -4 -4 -3 -8 2 -8 11 -23 20
-98 58 -125 64 -273 116 -378 133 -21 3 -48 8 -60 11 -26 6 -301 15 -307 9z"/>
<path d="M3458 5784 c-3 -2 -54 -6 -114 -9 -133 -6 -169 -10 -305 -35 -116
-22 -253 -62 -311 -91 -21 -11 -38 -17 -38 -14 0 11 -179 -101 -241 -150 -62
-51 -169 -163 -178 -188 -2 -7 -14 -25 -26 -42 -30 -41 -70 -128 -94 -201 -25
-74 -31 -106 -49 -224 -9 -64 -8 -266 2 -325 4 -22 9 -53 11 -69 3 -15 7 -36
10 -46 3 -10 8 -27 10 -37 7 -37 57 -159 71 -174 8 -8 14 -19 14 -23 0 -7 53
-87 75 -113 100 -120 285 -242 468 -309 90 -32 224 -74 257 -80 19 -4 41 -11
48 -17 7 -5 15 -7 18 -5 3 3 31 -1 62 -9 31 -8 64 -16 73 -18 27 -5 153 -35
189 -45 42 -12 121 -32 135 -34 6 -1 21 -5 35 -9 14 -4 43 -13 65 -19 22 -5
47 -13 55 -16 8 -3 17 -6 20 -7 3 0 37 -11 75 -25 251 -85 371 -192 419 -376
23 -86 16 -240 -14 -319 -47 -123 -131 -214 -261 -280 -45 -23 -155 -63 -194
-71 -11 -2 -31 -6 -45 -9 -183 -42 -581 -36 -780 11 -14 3 -40 8 -59 11 -18 3
-72 16 -120 29 -47 14 -93 26 -101 28 -8 2 -35 12 -60 21 -25 9 -61 21 -80 27
-19 5 -39 13 -45 16 -5 4 -12 7 -15 7 -3 1 -27 11 -54 23 -27 12 -54 22 -60
22 -7 0 -18 6 -25 13 -6 6 -15 12 -19 12 -4 0 -51 22 -106 48 -54 27 -100 46
-103 44 -5 -6 -5 -618 0 -624 14 -13 462 -139 529 -148 15 -2 35 -6 45 -9 10
-3 29 -7 43 -10 14 -2 52 -9 85 -15 33 -6 78 -13 100 -16 22 -2 50 -7 62 -9
12 -3 57 -8 100 -11 43 -4 96 -8 118 -10 49 -5 327 -5 375 -1 120 12 187 19
205 22 10 2 37 6 60 9 193 28 439 125 605 239 72 49 250 217 250 236 0 5 6 15
14 22 38 38 125 222 141 298 2 8 8 35 14 60 5 25 13 77 16 115 4 38 9 74 12
79 4 5 1 6 -5 2 -9 -5 -10 0 -4 16 19 55 -9 271 -52 403 -72 223 -252 411
-508 534 -48 23 -90 41 -93 41 -3 0 -18 6 -34 14 -31 17 -229 84 -258 89 -10
1 -23 6 -29 9 -6 4 -26 10 -45 13 -19 3 -42 8 -51 11 -9 3 -27 7 -40 10 -50
11 -64 14 -88 20 -14 3 -44 10 -67 14 -79 17 -328 81 -373 96 -25 9 -53 17
-62 19 -34 7 -204 78 -248 104 -111 64 -181 152 -206 258 -9 37 -9 200 -1 236
37 167 138 281 312 354 50 21 154 51 204 58 14 2 37 7 51 10 101 24 493 23
635 0 118 -20 205 -37 231 -46 17 -5 42 -12 55 -14 34 -7 159 -45 194 -60 17
-7 49 -20 72 -29 34 -12 168 -74 205 -93 4 -2 7 126 7 285 l-1 290 -27 12
c-68 31 -314 104 -391 116 -19 3 -42 8 -50 11 -8 3 -26 7 -40 8 -14 2 -51 8
-83 14 -32 6 -61 10 -65 10 -4 -1 -9 -1 -12 0 -3 1 -23 4 -45 6 -22 3 -58 7
-80 9 -22 3 -114 7 -205 11 -91 3 -170 8 -177 10 -6 2 -13 2 -15 -1z"/>
</g>
</svg>
